<svg xmlns="http://www.w3.org/2000/svg" width="160" height="48" viewBox="0 0 602 182" version="1.1">
  <path d="M374.006,142.184 L361.061,142.184 L350.810,110.684 L340.559,142.184 L327.621,142.184 L312.246,91.809 L326.055,91.809 L335.809,126.934 L346.771,91.809 L356.462,91.809 L367.115,126.934 L376.792,91.809 L389.792,91.809 L374.006,142.184 Z M233.821,123.816 C233.821,127.895 233.016,131.351 231.400,134.185 C229.790,137.028 227.361,139.287 224.120,140.965 C220.879,142.643 216.900,143.476 212.176,143.476 C205.475,143.476 200.311,141.583 196.697,137.793 C193.082,134.004 191.274,128.496 191.274,121.284 L191.274,91.809 L204.271,91.809 L204.271,120.704 C204.271,124.307 205.127,127.003 206.843,128.791 C208.559,130.576 211.271,131.470 214.980,131.470 C218.689,131.470 221.374,130.576 223.039,128.791 C224.699,127.003 225.532,124.307 225.532,120.704 L225.532,91.809 L238.529,91.809 L238.529,121.284 C238.529,128.496 236.958,134.004 233.821,137.793 L233.821,123.816 Z M278.263,142.184 L265.266,142.184 L265.266,91.809 L293.931,91.809 L293.931,103.299 L278.263,103.299 L278.263,110.268 L292.781,110.268 L292.781,121.427 L278.263,121.427 L278.263,142.184 Z M179.679,142.184 L166.683,142.184 L166.683,91.809 L179.679,91.809 L179.679,142.184 Z M156.784,115.613 C156.784,124.929 154.006,132.527 148.442,138.409 C142.885,144.296 135.397,147.235 125.979,147.235 C116.500,147.235 109.025,144.296 103.558,138.409 C98.091,132.527 95.362,124.929 95.362,115.613 C95.362,106.295 98.091,98.701 103.558,92.818 C109.026,86.936 116.501,84.001 125.979,84.001 C135.397,84.001 142.886,86.936 148.442,92.818 C154.006,98.701 156.784,106.295 156.784,115.613 Z M143.599,115.613 C143.599,110.287 142.264,105.943 139.591,102.575 C136.918,99.215 132.566,97.534 126.532,97.534 C120.168,97.534 115.615,99.246 112.880,102.669 C110.142,106.089 108.773,110.404 108.773,115.613 C108.773,120.824 110.142,125.139 112.880,128.559 C115.615,131.982 120.169,133.694 126.532,133.694 C132.566,133.694 136.918,132.013 139.591,128.653 C142.264,125.285 143.599,120.941 143.599,115.613 Z M80.367,115.996 L86.564,115.996 L86.564,123.709 L80.367,123.709 C75.877,123.709 72.569,125.069 70.440,127.788 C68.310,130.507 67.246,134.984 67.246,141.224 L54.250,141.224 C54.250,130.807 56.042,123.117 59.626,118.151 C63.209,113.182 70.115,110.695 80.367,110.695 L80.367,115.996 Z M43.168,123.899 C43.168,129.986 41.551,134.937 38.319,138.744 C35.087,142.553 30.988,144.457 26.027,144.457 C22.571,144.457 19.699,143.476 17.411,141.510 L16.857,142.184 L4.782,142.184 L4.782,71.748 L17.779,71.748 L17.779,96.204 C20.010,93.969 22.904,92.854 26.471,92.854 C31.375,92.854 35.413,94.759 38.593,98.566 C41.772,102.373 43.357,107.448 43.357,113.791 L43.357,123.899 L43.168,123.899 Z M30.171,113.411 C30.171,110.034 29.410,107.327 27.885,105.296 C26.360,103.265 24.231,102.245 21.499,102.245 C17.942,102.245 15.558,103.423 14.341,105.776 L14.341,122.335 C15.615,124.802 18.015,126.034 21.532,126.034 C26.841,126.034 29.518,122.047 29.675,114.068 L30.171,113.411 Z M601.984,66.755 C599.982,70.483 596.5,73.771 591.589,76.618 C586.673,79.465 580.766,80.755 573.868,80.394 L573.868,67.400 C575.775,67.522 577.632,67.585 579.438,67.585 C582.564,67.585 584.869,67.215 586.350,66.480 C587.644,65.873 588.134,64.986 587.825,63.825 C587.454,62.419 585.176,61.037 581.012,59.683 L576.739,57.879 C570.376,55.602 566.399,53.354 564.798,51.138 C562.337,47.793 562.027,43.330 563.878,37.744 C564.705,35.282 566.082,33.126 568.010,31.278 C569.937,29.424 572.479,27.981 575.638,26.933 C578.797,25.889 582.497,25.356 586.736,25.356 C593.880,25.356 600.351,26.964 606.123,30.171 L600.335,42.186 C595.546,38.842 591.088,37.166 586.975,37.166 C584.218,37.166 582.230,37.455 581.013,38.035 C579.796,38.614 579.250,39.308 579.373,40.117 C579.495,40.867 580.168,41.583 581.385,42.252 C582.601,42.923 584.682,43.761 587.613,44.770 L591.250,46.114 C597.614,48.455 601.647,50.807 603.359,53.170 C605.068,55.534 605.614,58.680 604.986,62.638 C604.307,66.902 603.165,69.834 601.984,71.509 L601.984,66.755 Z M555.996,66.755 C553.994,70.483 550.498,73.771 545.582,76.618 C540.665,79.465 534.765,80.755 527.861,80.394 L527.861,67.400 C529.767,67.522 531.624,67.585 533.431,67.585 C536.557,67.585 538.861,67.215 540.343,66.480 C541.637,65.873 542.126,64.986 541.817,63.825 C541.447,62.419 539.169,61.037 535.005,59.683 L530.732,57.879 C524.367,55.602 520.390,53.354 518.790,51.138 C516.330,47.793 516.019,43.330 517.870,37.744 C518.697,35.282 520.075,33.126 522.003,31.278 C523.929,29.424 526.472,27.981 529.630,26.933 C532.790,25.889 536.490,25.356 540.729,25.356 C547.871,25.356 554.343,26.964 560.116,30.171 L554.328,42.186 C549.538,38.842 545.080,37.166 540.968,37.166 C538.211,37.166 536.223,37.455 535.006,38.035 C533.788,38.614 533.243,39.308 533.366,40.117 C533.488,40.867 534.161,41.583 535.378,42.252 C536.594,42.923 538.675,43.761 541.606,44.770 L545.243,46.114 C551.607,48.455 555.639,50.807 557.352,53.170 C559.061,55.534 559.607,58.680 558.979,62.638 C558.300,66.902 557.157,69.834 555.977,71.509 L555.996,66.755 Z M508.475,44.278 L488.817,44.278 L488.817,80.102 L475.162,80.102 L475.162,44.278 L456.134,44.278 L456.134,31.652 L508.475,31.652 L508.475,44.278 Z M398.216,92.392 C398.216,78.007 403.674,66.449 414.582,57.719 C425.498,48.988 438.958,44.621 454.975,44.621 L454.975,66.234 C447.386,66.234 441.732,68.401 438.005,72.726 C434.283,77.066 432.418,83.811 432.418,92.965 C432.418,100.887 434.206,107.017 437.789,111.349 C441.373,115.683 447.105,117.850 454.975,117.850 L454.975,139.849 C438.713,139.849 425.079,135.456 414.055,126.660 C403.500,118.246 398.216,106.808 398.216,92.392 L398.216,92.392 Z" id="path-1" fill="#FF9900" fill-rule="nonzero"></path>
</svg>
