<svg xmlns="http://www.w3.org/2000/svg" width="108" height="24" viewBox="0 0 108 24">
  <path d="M44.836 4.6v18.4h-5.638V4.6h5.638zm15.534 0v3.2H52.8V23h-5.6V7.8h-7.5V4.6h20.67zm9.8 0l9.96 18.4h-6.112l-2.032-4.036H65.95l-2.068 4.036h-5.992L67.89 4.6h2.28zm-1.1 10.8l-2.994-6.088-3.03 6.088h6.024zM89.52 23h-9.936V4.6h9.972c6.486 0 10.62 3.672 10.62 9.108 0 5.472-4.134 9.288-10.656 9.288zM89.7 8.02h-4.518v11.16H89.7c3.456 0 5.778-2.232 5.778-5.58 0-3.312-2.322-5.58-5.778-5.58zM0 0h11.5v11.5H0zm12.5 0H24v11.5H12.5zM0 12.5h11.5V24H0zm12.5 0H24V24H12.5z" fill="#0078d4"></path>
</svg>
