<?xml version="1.0" encoding="utf-8"?>
<!-- Generator: Adobe Illustrator 21.0.2, SVG Export Plug-In . SVG Version: 6.00 Build 0)  -->
<svg version="1.1" id="Layer_1" xmlns="http://www.w3.org/2000/svg" xmlns:xlink="http://www.w3.org/1999/xlink" x="0px" y="0px"
	 viewBox="0 0 196.6 238" style="enable-background:new 0 0 196.6 238;" xml:space="preserve">
<style type="text/css">
	.st0{fill:#293271;}
</style>
<g>
	<g>
		<g>
			<path class="st0" d="M168.1,160.9H79.9v-2h88.3c1.2,0,2.3-0.1,3.3-0.5c25.8-8.9,23.3-28.2,23.1-28.5
				c-0.9-10.5-4.8-18.2-11.4-23.1c-11.8-8.8-28.6-5.6-28.9-5.6l-0.9,0.1l-0.3-0.9c-3.9-13.6-12.2-31.4-30.6-40.2
				c-10.9-5.2-20.2-4.5-20.3-4.5c-29.9,0.5-46.7,27.7-46.8,27.9L55,84.3l-0.8-0.2c-29-9.7-44.1,4.3-51.9,17.8l-0.5,0.9l-1.7-0.9
				l0.5-0.9c15-26.5,39.8-23.3,53.6-18.9c2.8-4.3,19.7-27.7,48-28.2c0.3,0,38.7-2.1,52.7,45.2c3.9-0.5,18.5-2.1,29.5,6.1
				c7,5.3,11.2,13.6,12.1,24.5c0,0.1,2.9,21.1-24.5,30.6C170.8,160.8,169.5,160.9,168.1,160.9z"/>
		</g>
	</g>
	<g>
		<g>
			<path class="st0" d="M67.8,184.2H0v-58.5h67.7v58.5H67.8z M2,182.2h63.7v-54.5H2V182.2z"/>
		</g>
		<g>
			<path class="st0" d="M55.3,127.7c-0.5,0-1.1-0.4-1.1-1.1v-10.2c0-11.2-9-20.2-20.2-20.2s-20.2,9-20.2,20.2v10.2
				c0,0.5-0.4,1.1-1.1,1.1s-0.9-0.4-0.9-0.9v-10.2c0-12.2,10-22.2,22.2-22.2s22.2,10,22.2,22.2v10.2
				C56.2,127.3,55.8,127.7,55.3,127.7z"/>
		</g>
		<g>
			<path class="st0" d="M45.9,127.7c-0.5,0-1.1-0.4-1.1-1.1v-10.2c0-6-4.8-10.8-10.8-10.8s-10.8,4.8-10.8,10.8v10.2
				c0,0.5-0.4,1.1-1.1,1.1s-1.1-0.4-1.1-1.1v-10.2c0-7,5.7-12.8,12.8-12.8s12.8,5.7,12.8,12.8v10.2
				C46.8,127.3,46.4,127.7,45.9,127.7z"/>
		</g>
		<g>
			<path class="st0" d="M34,154.9c-4.1,0-7.4-3.3-7.4-7.4s3.3-7.4,7.4-7.4s7.4,3.3,7.4,7.4S38.2,154.9,34,154.9z M34,142
				c-3.1,0-5.5,2.4-5.5,5.5s2.4,5.5,5.5,5.5s5.5-2.4,5.5-5.5C39.5,144.4,37.1,142,34,142z"/>
		</g>
		<g>
			<rect x="33.1" y="152.9" class="st0" width="2" height="21.1"/>
		</g>
	</g>
</g>
</svg>
