<?xml version="1.0" encoding="utf-8"?>
<!-- Generator: Adobe Illustrator 21.0.2, SVG Export Plug-In . SVG Version: 6.00 Build 0)  -->
<svg version="1.1" id="Layer_1" xmlns="http://www.w3.org/2000/svg" xmlns:xlink="http://www.w3.org/1999/xlink" x="0px" y="0px"
	 viewBox="0 0 196.6 238" style="enable-background:new 0 0 196.6 238;" xml:space="preserve">
<style type="text/css">
	.st0{fill:#293271;}
</style>
<g>
	<g>
		<g>
			<polygon class="st0" points="161.4,238 11.1,238 11.1,0 161.4,0 161.4,56.2 159,56.2 159,2.4 13.5,2.4 13.5,235.6 159,235.6 
				159,166.3 161.4,166.3 			"/>
		</g>
		<g>
			<rect x="11.1" y="24.1" class="st0" width="150.2" height="2.4"/>
		</g>
		<g>
			<rect x="11.1" y="190" class="st0" width="150.2" height="2.4"/>
		</g>
		<g>
			<rect x="65.4" y="211" class="st0" width="40.4" height="2.4"/>
		</g>
		<g>
			<path class="st0" d="M133.1,163.7c-28.9,0-52.4-23.5-52.4-52.4s23.5-52.4,52.4-52.4s52.4,23.5,52.4,52.4S162.1,163.7,133.1,163.7
				z M133.1,61.1c-27.6,0-50.2,22.4-50.2,50.2s22.4,50.2,50.2,50.2s50.2-22.4,50.2-50.2S160.7,61.1,133.1,61.1z"/>
		</g>
	</g>
	<g>
		<g>
			<path class="st0" d="M134.4,105.9c4.4,1.6,7.6,3.5,9.6,5.8c2.1,2.4,3,5.4,3,9c0,3.9-1.1,7.1-3.5,9.5c-2.2,2.5-5.4,3.9-9.3,4.3
				v4.7h-2.5v-4.6c-3.5-0.2-6.3-1.1-8.5-3s-3.6-4.4-4.3-7.7l4.6-2.8c0.6,2.7,1.6,4.7,2.8,6.2c1.3,1.4,3.2,2.2,5.2,2.5v-18.9
				c-3.9-1.6-6.8-3.3-8.5-5.4c-1.9-2.1-2.7-4.6-2.7-7.6c0-3.2,0.9-5.8,3-7.9c2.1-2.1,4.7-3.3,8.4-3.6v-3.2h2.5v3.2
				c2.5,0.2,4.7,0.8,6.5,2.1c1.7,1.1,3.3,2.8,4.3,4.9l-4.7,3c-0.6-1.6-1.4-2.8-2.5-3.6c-0.9-0.8-2.2-1.4-3.6-1.6v14.8H134.4z
				 M132,90.9c-1.7,0.3-3.3,1.1-4.3,2.2c-1.1,1.1-1.6,2.5-1.6,4.1c0,1.7,0.5,3.3,1.4,4.4c0.9,1.1,2.4,2.2,4.6,3.2V90.9H132z
				 M134.4,129.7c2.5-0.5,4.4-1.4,5.5-2.8c1.3-1.4,1.7-3.3,1.7-5.8c0-2.2-0.6-3.9-1.7-5.4s-3-2.7-5.7-3.8v17.8H134.4z"/>
		</g>
	</g>
	<g>
		<rect x="23.6" y="46.2" class="st0" width="2.4" height="78.1"/>
	</g>
	<g>
		<rect x="23.6" y="131.3" class="st0" width="2.4" height="15.8"/>
	</g>
</g>
</svg>
