<?xml version="1.0" encoding="utf-8"?>
<!-- Generator: Adobe Illustrator 21.0.2, SVG Export Plug-In . SVG Version: 6.00 Build 0)  -->
<svg version="1.1" id="Layer_1" xmlns="http://www.w3.org/2000/svg" xmlns:xlink="http://www.w3.org/1999/xlink" x="0px" y="0px"
	 viewBox="0 0 134 162.5" style="enable-background:new 0 0 134 162.5;" xml:space="preserve">
<style type="text/css">
	.st0{fill:#293271;}
</style>
<g>
	<g>
		<path class="st0" d="M134,41H84.5l9.3-27.9H134L134,41L134,41z M86.9,39.2h45.5V14.9H95.1L86.9,39.2z"/>
	</g>
	<g>
		<path class="st0" d="M71.8,50.3H0V22.4h81.1L71.8,50.3z M1.8,48.5h68.7l8.1-24.4H1.8V48.5z"/>
	</g>
	<g>
		<path class="st0" d="M134,74H74.1l9.3-27.9H134V74z M76.6,72.2h55.6V47.9H84.7L76.6,72.2z"/>
	</g>
	<g>
		<path class="st0" d="M61.4,83.3H0V55.4h70.7L61.4,83.3z M1.8,81.5h58.4l8.1-24.4H1.8V81.5z"/>
	</g>
	<g>
		<path class="st0" d="M51.2,116.4H0V88.5h60.4L51.2,116.4z M1.8,114.6h48.1l8.1-24.4H1.8V114.6z"/>
	</g>
	<g>
		<path class="st0" d="M134,107.1H63.8l9.3-27.9H134V107.1z M66.3,105.3h65.9V81H74.4L66.3,105.3z"/>
	</g>
	<g>
		<path class="st0" d="M41,149.4H0v-27.9h50.2L41,149.4z M1.8,147.6h37.8l8.1-24.4H1.8V147.6z"/>
	</g>
	<g>
		<path class="st0" d="M134,140.1H53.7l9.3-27.9h71V140.1z M56,138.4h76.3V114h-68L56,138.4z"/>
	</g>
</g>
</svg>
