<svg id="Isolation_Mode" xmlns="http://www.w3.org/2000/svg" viewBox="0 0 56.2 47.3"><style>.st0{fill:#fff}</style><path class="st0" d="M55.7 47.3H.5c-.3 0-.5-.3-.5-.5v-5c0-.3.2-.5.5-.5h55.2c.3 0 .5.2.5.5v5c0 .2-.3.5-.5.5zM1 46.3h54.2v-4H1v4zm27.1-9.6c-.2 0-.3-.1-.4-.2L17.7 23c-.3-.4-.3-.9-.1-1.3.2-.4.6-.7 1.1-.7h6.7V1.6c0-.9.7-1.6 1.6-1.6h2.2c.9 0 1.6.7 1.6 1.6V21h6.7c.5 0 .9.3 1.1.7.2.4.2.9-.1 1.3l-10 13.5c-.1.1-.3.2-.4.2zM18.6 22c-.1 0-.2 0-.2.1v.2l9.6 13 9.6-13c.1-.1.1-.2 0-.2 0-.1-.1-.1-.2-.1h-7.2c-.3 0-.5-.2-.5-.5V1.6c0-.3-.3-.6-.6-.6H27c-.3 0-.6.3-.6.6v19.9c0 .3-.2.5-.5.5h-7.3z"/></svg>