<svg id="Isolation_Mode" xmlns="http://www.w3.org/2000/svg" viewBox="0 0 55.8 56.2"><style>.st0{fill:#fff}</style><path class="st0" d="M55.3 56.2H15.2c-.3 0-.5-.2-.5-.5V7.6c0-.3.2-.5.5-.5h31.3c5.1 0 9.3 4.2 9.3 9.3v39.3c0 .2-.3.5-.5.5zm-39.6-1h39.1V16.4c0-4.6-3.7-8.3-8.3-8.3H15.7v47.1z"/><path class="st0" d="M46 17.3c-.1 0-.2 0-.3-.1-.2-.1-.2-.4-.1-.6 1.2-3.2 1.6-5.9 0-8.9-.1-.2-.1-.3 0-.5s.3-.2.4-.2h.5c5.1 0 9.3 4.2 9.3 9.3v.5c0 .2-.1.3-.2.4-.1.1-.3.1-.5 0-3.7-1.6-5.9-1.6-8.9 0-.1.1-.1.1-.2.1zm4.4-2.2c1.3 0 2.7.3 4.4 1-.1-4.3-3.6-7.9-8-8 1.2 2.8.9 5.4.1 7.8 1.1-.5 2.3-.8 3.5-.8zm-35.2 37H.5c-.3 0-.5-.2-.5-.5V.5C0 .2.2 0 .5 0h40.8c.3 0 .5.2.5.5v7.1c0 .3-.2.5-.5.5s-.5-.2-.5-.5V1H1v50.1h14.2c.3 0 .5.2.5.5s-.2.5-.5.5z"/><path class="st0" d="M46.5 15.9h-25c-.3 0-.5-.2-.5-.5s.2-.5.5-.5h24.9c.3 0 .5.2.5.5.1.3-.1.5-.4.5zm1.9 6.5H21.5c-.3 0-.5-.2-.5-.5s.2-.5.5-.5h26.9c.3 0 .5.2.5.5s-.2.5-.5.5zm0 6.5H21.5c-.3 0-.5-.2-.5-.5s.2-.5.5-.5h26.9c.3 0 .5.2.5.5s-.2.5-.5.5zm0 6.4H21.5c-.3 0-.5-.2-.5-.5s.2-.5.5-.5h26.9c.3 0 .5.2.5.5s-.2.5-.5.5zm0 6.5H21.5c-.3 0-.5-.2-.5-.5s.2-.5.5-.5h26.9c.3 0 .5.2.5.5s-.2.5-.5.5zm0 6.5H21.5c-.3 0-.5-.2-.5-.5s.2-.5.5-.5h26.9c.3 0 .5.2.5.5 0 .2-.2.5-.5.5z"/></svg>