<?xml version="1.0" encoding="utf-8"?>
<!-- Generator: Adobe Illustrator 21.0.2, SVG Export Plug-In . SVG Version: 6.00 Build 0)  -->
<svg version="1.1" id="Layer_1" xmlns="http://www.w3.org/2000/svg" xmlns:xlink="http://www.w3.org/1999/xlink" x="0px" y="0px"
	 viewBox="0 0 196.6 238" style="enable-background:new 0 0 196.6 238;" xml:space="preserve">
<style type="text/css">
	.st0{fill:#293271;}
</style>
<g>
	<g>
		<g>
			<polygon class="st0" points="190.5,168.4 0,168.4 0,85.1 108.6,85.1 108.6,87 1.9,87 1.9,166.5 188.6,166.5 188.6,158.6 
				190.5,158.6 			"/>
		</g>
		<g>
			<rect x="19.2" y="96.5" class="st0" width="1.9" height="60.5"/>
		</g>
		<g>
			<rect x="41.9" y="96.5" class="st0" width="1.9" height="60.5"/>
		</g>
		<g>
			<rect x="64.6" y="96.5" class="st0" width="1.9" height="60.5"/>
		</g>
		<g>
			<rect x="87.3" y="96.5" class="st0" width="1.9" height="60.5"/>
		</g>
	</g>
	<g>
		<g>
			<path class="st0" d="M192.8,148.7c-0.1,0-0.3,0-0.4,0l-10.9-2c-0.9-0.1-1.4-0.9-1.7-1.3c-1.3-1.9-2.6-3.7-3.7-5.6
				c-0.4-0.8-0.6-1.9-0.6-2.8c0.1-1.2,0.4-2.3,0.6-3.6l0.1-0.6l-4.2-0.9c-1-0.3-1.7-1.2-1.5-2.3l0.9-4.2l-3.5-0.6
				c-1.7-0.4-2.7-1-3.6-2.4c-0.8-1.2-1.5-2.3-2.2-3.5c-0.6-1-1.3-1.9-1.9-2.9c-0.4-0.5-0.5-0.6-1.2-0.5c-7.8,0.9-15.5-2.3-20.5-8.4
				c-4.9-6.1-6.3-14.2-3.7-21.5c3.1-8.8,9.5-14.2,18.5-15.5c9.2-1.3,16.8,2,22,9.7c5.1,7.5,5.5,15.9,1,24c-0.3,0.5-0.3,0.8,0,1.3
				c5.4,7.9,10.6,16,15.9,23.9l0.5,0.8c0.4,0.5,0.8,1,1.2,1.5c1,1.4,2.2,2.8,2.4,4.3c0.3,1.7-0.6,5.8-1.7,9.8
				c-0.1,0.8-0.4,1.4-0.4,1.7C194.6,148,193.7,148.7,192.8,148.7z M182.1,144.7l10.7,2c0-0.4,0.3-1,0.4-1.8c0.5-2.3,1.9-7.7,1.5-9.1
				c-0.3-1.2-1.2-2.4-2-3.6c-0.4-0.5-0.8-1-1.2-1.7l-0.5-0.8c-5.2-7.9-10.6-16-15.9-23.9c-0.8-1.2-0.8-2-0.1-3.2
				c4.1-7.7,3.8-15.1-1-22.1c-4.7-7-11.8-10.1-20.2-9c-8.3,1.2-14.2,6-17,14.2c-2.3,6.8-1,14.1,3.5,19.7c4.5,5.6,11.5,8.6,18.7,7.7
				c1.4-0.1,2.3,0.3,3.1,1.4c0.6,1,1.3,1.9,1.9,2.9c0.8,1.2,1.5,2.3,2.3,3.5c0.6,1,1.2,1.4,2.3,1.5l3.5,0.6c0.5,0.1,0.9,0.4,1.3,0.8
				c0.3,0.4,0.4,0.9,0.3,1.4l-0.9,4.2l4.2,0.9c0.5,0.1,0.9,0.4,1.2,0.8c0.3,0.4,0.4,0.9,0.3,1.4l-0.1,0.6c-0.3,1.2-0.5,2.3-0.6,3.5
				c0,0.4,0.1,1.2,0.4,1.5c1.2,1.9,2.4,3.7,3.6,5.5C181.8,144.6,182,144.7,182.1,144.7z"/>
		</g>
		<g>
			<path class="st0" d="M152.6,89.6c-0.4,0-0.8,0-1.2-0.1c-2.9-0.6-4.9-3.5-4.3-6.5c0.3-1.4,1.2-2.7,2.3-3.5
				c1.3-0.8,2.7-1.2,4.1-0.8c2.9,0.6,4.9,3.5,4.3,6.5c-0.3,1.4-1.2,2.7-2.3,3.5C154.7,89.3,153.7,89.6,152.6,89.6z M152.6,80.5
				c-0.6,0-1.4,0.3-1.9,0.6c-0.8,0.5-1.3,1.3-1.5,2.3l0,0c-0.4,1.9,0.9,3.8,2.8,4.2c0.9,0.3,1.9,0,2.7-0.5c0.8-0.5,1.4-1.3,1.5-2.3
				c0.4-1.9-0.9-3.8-2.8-4.2C153.1,80.5,152.8,80.5,152.6,80.5z M148.1,83.2L148.1,83.2L148.1,83.2z"/>
		</g>
		<g>
			
				<rect x="186.4" y="127.4" transform="matrix(0.8335 -0.5525 0.5525 0.8335 -45.1549 126.4949)" class="st0" width="1.9" height="21.5"/>
		</g>
		<g>
			<path class="st0" d="M130.3,160.6c-0.5,0-1.2-0.3-1.5-0.6l-6.9-8.6c-0.5-0.6-0.5-1.7-0.5-2c0.3-2.3,0.5-4.5,0.9-6.8
				c0.1-0.9,0.8-1.9,1.4-2.4c0.9-0.8,1.8-1.5,2.8-2.3l0.5-0.4l-2.7-3.3c-0.3-0.4-0.5-0.9-0.4-1.4c0-0.5,0.3-0.9,0.8-1.3l3.5-2.7
				L126,126c-1-1.3-1.4-2.6-1.2-4.2c0.3-1.3,0.4-2.7,0.5-4.1c0.1-1.2,0.3-2.3,0.4-3.6c0.1-0.6,0-0.8-0.5-1.2
				c-6.5-4.3-10.4-11.8-10.1-19.7c0.3-7.8,4.3-14.8,11.1-18.8c6.5-3.8,13.4-4.5,19.9-1.9l0.9,0.4l-1.7,1.4c-6-2.4-12.1-1.9-18.3,1.8
				c-6.1,3.6-10,10.1-10.1,17.3c-0.3,7.3,3.2,13.9,9.2,18c1.2,0.8,1.5,1.7,1.4,3.1c-0.1,1.2-0.3,2.3-0.4,3.5
				c-0.1,1.4-0.3,2.8-0.5,4.1c-0.1,1.2,0,1.8,0.8,2.7l2.2,2.7c0.3,0.4,0.5,0.9,0.4,1.4c0,0.5-0.3,0.9-0.8,1.3l-3.5,2.7l2.7,3.3
				c0.3,0.4,0.5,0.9,0.4,1.4c-0.1,0.5-0.4,1-0.8,1.3l-0.5,0.4c-1,0.8-1.9,1.4-2.7,2.2c-0.3,0.3-0.6,1-0.8,1.4
				c-0.4,2.2-0.6,4.3-0.8,6.5c0,0.4,0,0.6,0,0.8l6.9,8.6c0.3-0.3,0.8-0.6,1.4-1c1.9-1.4,6.4-4.6,7-5.9c0.6-1,0.6-2.6,0.8-4.1
				c0-0.6,0.1-1.4,0.1-2l0.1-0.8c1.2-9.6,2.3-19.2,3.5-28.8c0.1-1.3,0.8-2,1.9-2.6c1-0.4,2-0.9,2.9-1.4l0.9-0.5l0.9,1.7l-0.9,0.5
				c-1,0.5-2,1-3.2,1.4c-0.6,0.3-0.6,0.4-0.8,1c-1.2,9.6-2.3,19.2-3.5,28.8l-0.1,0.8c-0.1,0.6-0.1,1.3-0.1,1.9c-0.1,1.7-0.1,3.5-1,5
				c-0.8,1.4-4.2,4-7.7,6.4c-0.6,0.5-1.2,0.8-1.4,1C131.2,160.4,130.7,160.6,130.3,160.6z"/>
		</g>
		<g>
			
				<rect x="121.2" y="148.1" transform="matrix(0.1198 -0.9928 0.9928 0.1198 -31.8378 262.1683)" class="st0" width="21.5" height="1.9"/>
		</g>
	</g>
</g>
</svg>
