<svg id="Layer_1" xmlns="http://www.w3.org/2000/svg" viewBox="0 0 201.8 23.9"><style>.st0{fill:#fff}</style><path class="st0" d="M91.3 17.3c0 2.2-1.8 4-4 4s-4-1.8-4-4 1.8-4 4-4 4 1.8 4 4m110.7.3c0 3.3-.9 4.2-3.5 5-2.8.9-7.8 1.4-10.8 1.4-3.5 0-7.9-.2-11.6-1.1v-3.8h20.6V14h-14.6c-4.4 0-6-1.2-6-5.5V6.3c0-3.4 1-4.4 3.7-5.1C182.6.5 187.1 0 190 0c3.6 0 7.9.3 11.6 1.1v3.8h-20.3v4.3H196c4.4 0 6 1.2 6 5.5v2.9m-35.1 5.3c-4.3.8-8.6 1.1-12.7 1.1-4.2 0-8.5-.2-12.8-1.1V1.1C145.7.3 150 0 154.2 0c4.2 0 8.4.3 12.7 1.1V5h-19.3v4.3h12.6v4.5h-12.6V19H167v3.9m-33 0c-3.8.9-7.7 1.1-11.4 1.1s-7.6-.2-11.5-1.1V.5h6.1v18.1H134v4.3"/><path class="st0" d="M103.8 23c-2 .6-4.8.8-6.8.8L87.6 4.7h-.5l-9.5 19.1c-2 0-4.4-.2-6.4-.8L83.2.6h8.5L103.8 23m-40.1 0c-2 .6-4.1.8-6.1.8V14H42.3v9.8c-2.1 0-4.2-.2-6.1-.8V1c2-.6 4.1-.8 6.1-.8v9.4h15.3V.2c2.1 0 4.2.2 6.1.8v22M27.6 5H16.9v18.4h-6.1V5H0V1.1C4.6.3 9.3 0 13.8 0s9.2.3 13.8 1.1V5M202 17.6c0 3.3-.9 4.2-3.5 5-2.8.9-7.8 1.4-10.8 1.4-3.5 0-7.9-.2-11.6-1.1v-3.8h20.6V14h-14.6c-4.4 0-6-1.2-6-5.5V6.3c0-3.4 1-4.4 3.7-5.1C182.6.5 187.1 0 190 0c3.6 0 7.9.3 11.6 1.1v3.8h-20.3v4.3H196c4.4 0 6 1.2 6 5.5v2.9m-35.1 5.3c-4.3.8-8.6 1.1-12.7 1.1-4.2 0-8.5-.2-12.8-1.1V1.1C145.7.3 150 0 154.2 0c4.2 0 8.4.3 12.7 1.1V5h-19.3v4.3h12.6v4.5h-12.6V19H167v3.9m-33 0c-3.8.9-7.7 1.1-11.4 1.1s-7.6-.2-11.5-1.1V.5h6.1v18.1H134v4.3"/><path class="st0" d="M103.8 23c-2 .6-4.8.8-6.8.8L87.6 4.7h-.5l-9.5 19.1c-2 0-4.4-.2-6.4-.8L83.2.6h8.5L103.8 23m-40.1 0c-2 .6-4.1.8-6.1.8V14H42.3v9.8c-2.1 0-4.2-.2-6.1-.8V1c2-.6 4.1-.8 6.1-.8v9.4h15.3V.2c2.1 0 4.2.2 6.1.8v22M27.6 5H16.9v18.4h-6.1V5H0V1.1C4.6.3 9.3 0 13.8 0s9.2.3 13.8 1.1V5"/></svg>